<svg width="403" height="333" viewBox="0 0 403 333" fill="none" xmlns="http://www.w3.org/2000/svg">
<g filter="url(#filter0_ddd_2_737)">
<path d="M300.046 153.858L300.046 153.859C306.191 174.06 300.602 194.794 285.452 208.085L285.444 208.092C283.987 209.423 282.461 210.666 280.877 211.817C271.945 218.302 261.129 221.859 249.91 221.859H152.454C127.049 219.996 115.655 200.456 115.655 183.012C115.655 182.071 115.655 181.154 115.747 180.147L115.747 180.147L115.747 180.136C116.484 169.495 121.465 158.486 131.119 151.475C134.856 148.761 139.299 146.641 144.478 145.372L144.968 145.252L144.844 144.764C139.34 123.029 144.01 102.647 158.149 87.8557L158.149 87.8557C160.644 85.2454 163.37 82.878 166.277 80.7665C182.149 69.2407 203.422 65.3547 222.153 71.1785L222.155 71.1792C242.523 77.4104 256.873 94.1522 262.005 117.48L262.073 117.789L262.381 117.86C272.518 120.184 281.533 125.484 288.317 133.197L288.322 133.203L288.327 133.208C293.625 138.878 297.626 145.853 300.046 153.858Z" fill="#E1FF00"/>
<path d="M300.046 153.858L300.046 153.859C306.191 174.06 300.602 194.794 285.452 208.085L285.444 208.092C283.987 209.423 282.461 210.666 280.877 211.817C271.945 218.302 261.129 221.859 249.91 221.859H152.454C127.049 219.996 115.655 200.456 115.655 183.012C115.655 182.071 115.655 181.154 115.747 180.147L115.747 180.147L115.747 180.136C116.484 169.495 121.465 158.486 131.119 151.475C134.856 148.761 139.299 146.641 144.478 145.372L144.968 145.252L144.844 144.764C139.34 123.029 144.01 102.647 158.149 87.8557L158.149 87.8557C160.644 85.2454 163.37 82.878 166.277 80.7665C182.149 69.2407 203.422 65.3547 222.153 71.1785L222.155 71.1792C242.523 77.4104 256.873 94.1522 262.005 117.48L262.073 117.789L262.381 117.86C272.518 120.184 281.533 125.484 288.317 133.197L288.322 133.203L288.327 133.208C293.625 138.878 297.626 145.853 300.046 153.858Z" fill="url(#paint0_radial_2_737)"/>
<path d="M300.046 153.858L300.046 153.859C306.191 174.06 300.602 194.794 285.452 208.085L285.444 208.092C283.987 209.423 282.461 210.666 280.877 211.817C271.945 218.302 261.129 221.859 249.91 221.859H152.454C127.049 219.996 115.655 200.456 115.655 183.012C115.655 182.071 115.655 181.154 115.747 180.147L115.747 180.147L115.747 180.136C116.484 169.495 121.465 158.486 131.119 151.475C134.856 148.761 139.299 146.641 144.478 145.372L144.968 145.252L144.844 144.764C139.34 123.029 144.01 102.647 158.149 87.8557L158.149 87.8557C160.644 85.2454 163.37 82.878 166.277 80.7665C182.149 69.2407 203.422 65.3547 222.153 71.1785L222.155 71.1792C242.523 77.4104 256.873 94.1522 262.005 117.48L262.073 117.789L262.381 117.86C272.518 120.184 281.533 125.484 288.317 133.197L288.322 133.203L288.327 133.208C293.625 138.878 297.626 145.853 300.046 153.858Z" stroke="#28252E"/>
<path d="M114.655 182.758L100.504 193.039C100.511 192.499 100.528 191.954 100.573 191.382L114.681 181.132C114.658 181.692 114.655 182.23 114.655 182.758Z" fill="#E1FF00"/>
<path d="M114.655 182.758L100.504 193.039C100.511 192.499 100.528 191.954 100.573 191.382L114.681 181.132C114.658 181.692 114.655 182.23 114.655 182.758Z" fill="url(#paint1_radial_2_737)"/>
<path d="M114.655 182.758L100.504 193.039C100.511 192.499 100.528 191.954 100.573 191.382L114.681 181.132C114.658 181.692 114.655 182.23 114.655 182.758Z" stroke="#28252E" stroke-linejoin="round"/>
<path d="M151.057 222.742L137.135 232.857C111.969 230.932 100.611 211.618 100.501 194.277L114.666 183.985C115.076 201.284 126.416 220.307 151.057 222.742Z" fill="#E1FF00"/>
<path d="M151.057 222.742L137.135 232.857C111.969 230.932 100.611 211.618 100.501 194.277L114.666 183.985C115.076 201.284 126.416 220.307 151.057 222.742Z" fill="url(#paint2_radial_2_737)"/>
<path d="M151.057 222.742L137.135 232.857C111.969 230.932 100.611 211.618 100.501 194.277L114.666 183.985C115.076 201.284 126.416 220.307 151.057 222.742Z" stroke="#28252E" stroke-linejoin="round"/>
<path d="M100.682 190.067C101.671 179.766 106.637 169.26 115.965 162.486L115.965 162.486L124.228 156.482C118.466 163.197 115.381 171.624 114.767 179.834L100.682 190.067Z" fill="#E1FF00"/>
<path d="M100.682 190.067C101.671 179.766 106.637 169.26 115.965 162.486L115.965 162.486L124.228 156.482C118.466 163.197 115.381 171.624 114.767 179.834L100.682 190.067Z" fill="url(#paint3_radial_2_737)"/>
<path d="M100.682 190.067C101.671 179.766 106.637 169.26 115.965 162.486L115.965 162.486L124.228 156.482C118.466 163.197 115.381 171.624 114.767 179.834L100.682 190.067Z" stroke="#28252E" stroke-linejoin="round"/>
<path d="M122.897 157.449L131.12 151.475C131.12 151.475 131.12 151.475 131.12 151.475C134.199 149.239 137.757 147.406 141.811 146.12L128.99 155.435C126.837 155.968 124.806 156.645 122.897 157.449Z" fill="#E1FF00"/>
<path d="M122.897 157.449L131.12 151.475C131.12 151.475 131.12 151.475 131.12 151.475C134.199 149.239 137.757 147.406 141.811 146.12L128.99 155.435C126.837 155.968 124.806 156.645 122.897 157.449Z" fill="url(#paint4_radial_2_737)"/>
<path d="M122.897 157.449L131.12 151.475C131.12 151.475 131.12 151.475 131.12 151.475C134.199 149.239 137.757 147.406 141.811 146.12L128.99 155.435C126.837 155.968 124.806 156.645 122.897 157.449Z" stroke="#28252E" stroke-linejoin="round"/>
<path d="M248.371 222.859L234.593 232.87H138.82L152.598 222.859H248.371Z" fill="#E1FF00"/>
<path d="M248.371 222.859L234.593 232.87H138.82L152.598 222.859H248.371Z" fill="url(#paint5_radial_2_737)"/>
<path d="M248.371 222.859L234.593 232.87H138.82L152.598 222.859H248.371Z" stroke="#28252E" stroke-linejoin="round"/>
<path d="M143.792 144.681L129.511 155.057C124.293 133.607 129.003 113.524 142.963 98.8989L154.394 90.5944C142.442 105.228 138.749 124.404 143.792 144.681Z" fill="#E1FF00"/>
<path d="M143.792 144.681L129.511 155.057C124.293 133.607 129.003 113.524 142.963 98.8989L154.394 90.5944C142.442 105.228 138.749 124.404 143.792 144.681Z" fill="url(#paint6_radial_2_737)"/>
<path d="M143.792 144.681L129.511 155.057C124.293 133.607 129.003 113.524 142.963 98.8989L154.394 90.5944C142.442 105.228 138.749 124.404 143.792 144.681Z" stroke="#28252E" stroke-linejoin="round"/>
<mask id="path-8-inside-1_2_737" fill="white">
<path d="M142.633 98.5208C145.15 95.8882 147.898 93.5012 150.829 91.3726L165.961 80.3783C163.039 82.5028 160.298 84.8843 157.788 87.5102L142.633 98.5208Z"/>
</mask>
<path d="M142.633 98.5208C145.15 95.8882 147.898 93.5012 150.829 91.3726L165.961 80.3783C163.039 82.5028 160.298 84.8843 157.788 87.5102L142.633 98.5208Z" fill="#E1FF00"/>
<path d="M142.633 98.5208C145.15 95.8882 147.898 93.5012 150.829 91.3726L165.961 80.3783C163.039 82.5028 160.298 84.8843 157.788 87.5102L142.633 98.5208Z" fill="url(#paint7_radial_2_737)"/>
<path d="M166.255 80.7828C166.263 80.7773 166.27 80.7719 166.278 80.7666L165.69 79.9574C165.682 79.9629 165.675 79.9684 165.667 79.9738L166.255 80.7828ZM150.829 91.3726L151.417 92.1818L151.417 92.1816L150.829 91.3726ZM142.633 98.5208L141.91 97.8299C141.553 98.204 141.54 98.7891 141.88 99.1788C142.221 99.5685 142.802 99.6341 143.221 99.3299L142.633 98.5208ZM157.788 87.5102L158.376 88.3192C158.424 88.284 158.47 88.2445 158.511 88.2012L157.788 87.5102ZM165.961 80.3783L166.549 81.1872C166.996 80.8625 167.095 80.2372 166.77 79.7904C166.446 79.3437 165.82 79.2447 165.374 79.5693L165.961 80.3783ZM150.241 90.5635C147.263 92.7263 144.469 95.1526 141.91 97.8299L143.356 99.2118C145.83 96.6238 148.533 94.2761 151.417 92.1818L150.241 90.5635ZM143.221 99.3299L158.376 88.3192L157.2 86.7012L142.046 97.7118L143.221 99.3299ZM158.511 88.2012C160.978 85.6198 163.674 83.2775 166.549 81.1872L165.373 79.5694C162.404 81.728 159.618 84.1489 157.065 86.8193L158.511 88.2012ZM165.374 79.5693L150.241 90.5636L151.417 92.1816L166.549 81.1873L165.374 79.5693Z" fill="#28252E" mask="url(#path-8-inside-1_2_737)"/>
<path d="M272.554 217.864L265.722 222.827C265.722 222.827 265.722 222.827 265.722 222.827C257.208 229.01 246.982 232.531 236.326 232.846L250.073 222.859C257.927 222.835 265.584 221.101 272.554 217.864Z" fill="#E1FF00"/>
<path d="M272.554 217.864L265.722 222.827C265.722 222.827 265.722 222.827 265.722 222.827C257.208 229.01 246.982 232.531 236.326 232.846L250.073 222.859C257.927 222.835 265.584 221.101 272.554 217.864Z" fill="url(#paint8_radial_2_737)"/>
<path d="M272.554 217.864L265.722 222.827C265.722 222.827 265.722 222.827 265.722 222.827C257.208 229.01 246.982 232.531 236.326 232.846L250.073 222.859C257.927 222.835 265.584 221.101 272.554 217.864Z" stroke="#28252E" stroke-linejoin="round"/>
<mask id="path-11-inside-2_2_737" fill="white">
<path d="M270.627 219.472C269.162 220.81 267.63 222.059 266.038 223.216L281.171 212.221C282.77 211.06 284.31 209.805 285.782 208.461L270.627 219.472Z"/>
</mask>
<path d="M270.627 219.472C269.162 220.81 267.63 222.059 266.038 223.216L281.171 212.221C282.77 211.06 284.31 209.805 285.782 208.461L270.627 219.472Z" fill="#E1FF00"/>
<path d="M270.627 219.472C269.162 220.81 267.63 222.059 266.038 223.216L281.171 212.221C282.77 211.06 284.31 209.805 285.782 208.461L270.627 219.472Z" fill="url(#paint9_radial_2_737)"/>
<path d="M266.31 223.637C266.317 223.631 266.325 223.626 266.332 223.62L265.744 222.812C265.737 222.817 265.729 222.822 265.722 222.828L266.31 223.637ZM266.038 223.216L265.45 222.407C265.003 222.732 264.905 223.357 265.229 223.804C265.554 224.251 266.179 224.35 266.626 224.025L266.038 223.216ZM270.627 219.472L270.039 218.663C270.009 218.685 269.98 218.708 269.952 218.733L270.627 219.472ZM285.782 208.461L286.456 209.199C286.848 208.841 286.892 208.24 286.557 207.829C286.221 207.418 285.623 207.34 285.194 207.652L285.782 208.461ZM281.171 212.221L280.583 211.412L280.583 211.412L281.171 212.221ZM266.626 224.025C268.248 222.846 269.809 221.573 271.301 220.21L269.952 218.733C268.515 220.046 267.012 221.272 265.45 222.407L266.626 224.025ZM271.215 220.281L286.37 209.27L285.194 207.652L270.039 218.663L271.215 220.281ZM285.107 207.723C283.663 209.042 282.153 210.273 280.583 211.412L281.758 213.031C283.388 211.847 284.957 210.569 286.456 209.199L285.107 207.723ZM280.583 211.412L265.45 222.407L266.626 224.025L281.758 213.031L280.583 211.412Z" fill="#28252E" mask="url(#path-11-inside-2_2_737)"/>
<path d="M160.208 85.1764L166.278 80.7665L160.208 85.1764ZM160.208 85.1764C174.65 78.1602 191.673 76.4496 207.055 81.1602L221.192 70.8889C202.698 65.4895 181.878 69.4373 166.278 80.7665L160.208 85.1764Z" fill="#E1FF00"/>
<path d="M160.208 85.1764L166.278 80.7665L160.208 85.1764ZM160.208 85.1764C174.65 78.1602 191.673 76.4496 207.055 81.1602L221.192 70.8889C202.698 65.4895 181.878 69.4373 166.278 80.7665L160.208 85.1764Z" fill="url(#paint10_radial_2_737)"/>
<path d="M160.208 85.1764L166.278 80.7665L160.208 85.1764ZM160.208 85.1764C174.65 78.1602 191.673 76.4496 207.055 81.1602L221.192 70.8889C202.698 65.4895 181.878 69.4373 166.278 80.7665L160.208 85.1764Z" stroke="#28252E" stroke-linejoin="round"/>
<path d="M300.247 154.534C306.063 174.513 300.438 194.926 285.469 208.07L275.553 215.274C287.418 201.876 291.386 183.181 285.951 164.92L300.247 154.534Z" fill="#E1FF00"/>
<path d="M300.247 154.534C306.063 174.513 300.438 194.926 285.469 208.07L275.553 215.274C287.418 201.876 291.386 183.181 285.951 164.92L300.247 154.534Z" fill="url(#paint11_radial_2_737)"/>
<path d="M300.247 154.534C306.063 174.513 300.438 194.926 285.469 208.07L275.553 215.274C287.418 201.876 291.386 183.181 285.951 164.92L300.247 154.534Z" stroke="#28252E" stroke-linejoin="round"/>
<path d="M247.659 127.532C242.404 104.652 228.284 88.04 208.243 81.5331L222.393 71.2526C242.541 77.5122 256.762 94.0902 261.934 117.161L247.659 127.532Z" fill="#E1FF00"/>
<path d="M247.659 127.532C242.404 104.652 228.284 88.04 208.243 81.5331L222.393 71.2526C242.541 77.5122 256.762 94.0902 261.934 117.161L247.659 127.532Z" fill="url(#paint12_radial_2_737)"/>
<path d="M247.659 127.532C242.404 104.652 228.284 88.04 208.243 81.5331L222.393 71.2526C242.541 77.5122 256.762 94.0902 261.934 117.161L247.659 127.532Z" stroke="#28252E" stroke-linejoin="round"/>
<path d="M287.952 132.787L273.611 143.206C266.96 135.784 258.265 130.602 248.509 128.15L262.603 117.911C272.468 120.22 281.262 125.351 287.952 132.787Z" fill="#E1FF00"/>
<path d="M287.952 132.787L273.611 143.206C266.96 135.784 258.265 130.602 248.509 128.15L262.603 117.911C272.468 120.22 281.262 125.351 287.952 132.787Z" fill="url(#paint13_radial_2_737)"/>
<path d="M287.952 132.787L273.611 143.206C266.96 135.784 258.265 130.602 248.509 128.15L262.603 117.911C272.468 120.22 281.262 125.351 287.952 132.787Z" stroke="#28252E" stroke-linejoin="round"/>
<path d="M285.642 163.909C283.221 156.236 279.357 149.501 274.287 143.951L288.628 133.532C293.702 139.062 297.559 145.807 299.943 153.519L285.642 163.909Z" fill="#E1FF00"/>
<path d="M285.642 163.909C283.221 156.236 279.357 149.501 274.287 143.951L288.628 133.532C293.702 139.062 297.559 145.807 299.943 153.519L285.642 163.909Z" fill="url(#paint14_radial_2_737)"/>
<path d="M285.642 163.909C283.221 156.236 279.357 149.501 274.287 143.951L288.628 133.532C293.702 139.062 297.559 145.807 299.943 153.519L285.642 163.909Z" stroke="#28252E" stroke-linejoin="round"/>
<path d="M285.37 164.724C282.929 156.649 278.891 149.606 273.538 143.877C266.683 136.083 257.574 130.731 247.338 128.383C242.173 104.906 227.712 88.0034 207.147 81.7117C184.797 74.7627 158.879 81.5239 142.633 98.5208C128.36 113.452 123.664 134.017 129.205 155.897C110.424 160.499 101.127 176.181 100.094 191.112C100 192.145 100 193.084 100 194.023C100 211.677 111.55 231.491 137.281 233.37H234.755C248.089 233.37 260.861 228.393 270.627 219.472C285.934 206.043 291.568 185.102 285.37 164.724Z" fill="#292D32"/>
</g>
<defs>
<filter id="filter0_ddd_2_737" x="0" y="0" width="403" height="365.37" filterUnits="userSpaceOnUse" color-interpolation-filters="sRGB">
<feFlood flood-opacity="0" result="BackgroundImageFix"/>
<feColorMatrix in="SourceAlpha" type="matrix" values="0 0 0 0 0 0 0 0 0 0 0 0 0 0 0 0 0 0 127 0" result="hardAlpha"/>
<feOffset dy="32"/>
<feGaussianBlur stdDeviation="50"/>
<feColorMatrix type="matrix" values="0 0 0 0 1 0 0 0 0 0.845196 0 0 0 0 0.249211 0 0 0 0.4 0"/>
<feBlend mode="normal" in2="BackgroundImageFix" result="effect1_dropShadow_2_737"/>
<feColorMatrix in="SourceAlpha" type="matrix" values="0 0 0 0 0 0 0 0 0 0 0 0 0 0 0 0 0 0 127 0" result="hardAlpha"/>
<feOffset dy="16"/>
<feGaussianBlur stdDeviation="36"/>
<feColorMatrix type="matrix" values="0 0 0 0 0.941176 0 0 0 0 0.682353 0 0 0 0 1 0 0 0 1 0"/>
<feBlend mode="normal" in2="effect1_dropShadow_2_737" result="effect2_dropShadow_2_737"/>
<feColorMatrix in="SourceAlpha" type="matrix" values="0 0 0 0 0 0 0 0 0 0 0 0 0 0 0 0 0 0 127 0" result="hardAlpha"/>
<feOffset dy="8"/>
<feGaussianBlur stdDeviation="6"/>
<feColorMatrix type="matrix" values="0 0 0 0 0.541176 0 0 0 0 0.92549 0 0 0 0 1 0 0 0 0.4 0"/>
<feBlend mode="normal" in2="effect2_dropShadow_2_737" result="effect3_dropShadow_2_737"/>
<feBlend mode="normal" in="SourceGraphic" in2="effect3_dropShadow_2_737" result="shape"/>
</filter>
<radialGradient id="paint0_radial_2_737" cx="0" cy="0" r="1" gradientUnits="userSpaceOnUse" gradientTransform="translate(294.275 90.1617) rotate(140.006) scale(210.576 207.414)">
<stop stop-color="#FFD840"/>
<stop offset="0.558578" stop-color="#F3ACFF"/>
<stop offset="1" stop-color="#8AECFF"/>
</radialGradient>
<radialGradient id="paint1_radial_2_737" cx="0" cy="0" r="1" gradientUnits="userSpaceOnUse" gradientTransform="translate(114.54 182.1) rotate(137.013) scale(17.9024 17.862)">
<stop stop-color="#FFD840"/>
<stop offset="0.558578" stop-color="#F3ACFF"/>
<stop offset="1" stop-color="#8AECFF"/>
</radialGradient>
<radialGradient id="paint2_radial_2_737" cx="0" cy="0" r="1" gradientUnits="userSpaceOnUse" gradientTransform="translate(150 190.242) rotate(135.565) scale(63.0662 63.0675)">
<stop stop-color="#FFD840"/>
<stop offset="0.558578" stop-color="#F3ACFF"/>
<stop offset="1" stop-color="#8AECFF"/>
</radialGradient>
<radialGradient id="paint3_radial_2_737" cx="0" cy="0" r="1" gradientUnits="userSpaceOnUse" gradientTransform="translate(129.398 156.819) rotate(126.935) scale(43.922 42.2018)">
<stop stop-color="#FFD840"/>
<stop offset="0.558578" stop-color="#F3ACFF"/>
<stop offset="1" stop-color="#8AECFF"/>
</radialGradient>
<radialGradient id="paint4_radial_2_737" cx="0" cy="0" r="1" gradientUnits="userSpaceOnUse" gradientTransform="translate(143.027 147.355) rotate(148.538) scale(28.8847 25.7245)">
<stop stop-color="#FFD840"/>
<stop offset="0.558578" stop-color="#F3ACFF"/>
<stop offset="1" stop-color="#8AECFF"/>
</radialGradient>
<radialGradient id="paint5_radial_2_737" cx="0" cy="0" r="1" gradientUnits="userSpaceOnUse" gradientTransform="translate(244.679 223.94) rotate(174.3) scale(97.208 19.2166)">
<stop stop-color="#FFD840"/>
<stop offset="0.558578" stop-color="#F3ACFF"/>
<stop offset="1" stop-color="#8AECFF"/>
</radialGradient>
<radialGradient id="paint6_radial_2_737" cx="0" cy="0" r="1" gradientUnits="userSpaceOnUse" gradientTransform="translate(156.355 97.3288) rotate(113.836) scale(65.552 48.473)">
<stop stop-color="#FFD840"/>
<stop offset="0.558578" stop-color="#F3ACFF"/>
<stop offset="1" stop-color="#8AECFF"/>
</radialGradient>
<radialGradient id="paint7_radial_2_737" cx="0" cy="0" r="1" gradientUnits="userSpaceOnUse" gradientTransform="translate(164.899 82.9691) rotate(141.553) scale(25.6055 24.944)">
<stop stop-color="#FFD840"/>
<stop offset="0.558578" stop-color="#F3ACFF"/>
<stop offset="1" stop-color="#8AECFF"/>
</radialGradient>
<radialGradient id="paint8_radial_2_737" cx="0" cy="0" r="1" gradientUnits="userSpaceOnUse" gradientTransform="translate(279.015 215.258) rotate(155.054) scale(43.9642 33.6323)">
<stop stop-color="#FFD840"/>
<stop offset="0.558578" stop-color="#F3ACFF"/>
<stop offset="1" stop-color="#8AECFF"/>
</radialGradient>
<radialGradient id="paint9_radial_2_737" cx="0" cy="0" r="1" gradientUnits="userSpaceOnUse" gradientTransform="translate(284.864 210.582) rotate(142.658) scale(21.3515 20.5975)">
<stop stop-color="#FFD840"/>
<stop offset="0.558578" stop-color="#F3ACFF"/>
<stop offset="1" stop-color="#8AECFF"/>
</radialGradient>
<radialGradient id="paint10_radial_2_737" cx="0" cy="0" r="1" gradientUnits="userSpaceOnUse" gradientTransform="translate(218.982 71.3557) rotate(161.538) scale(64.7121 38.8845)">
<stop stop-color="#FFD840"/>
<stop offset="0.558578" stop-color="#F3ACFF"/>
<stop offset="1" stop-color="#8AECFF"/>
</radialGradient>
<radialGradient id="paint11_radial_2_737" cx="0" cy="0" r="1" gradientUnits="userSpaceOnUse" gradientTransform="translate(301.496 163.155) rotate(115.744) scale(64.0088 50.0965)">
<stop stop-color="#FFD840"/>
<stop offset="0.558578" stop-color="#F3ACFF"/>
<stop offset="1" stop-color="#8AECFF"/>
</radialGradient>
<radialGradient id="paint12_radial_2_737" cx="0" cy="0" r="1" gradientUnits="userSpaceOnUse" gradientTransform="translate(259.922 78.9826) rotate(133.224) scale(69.4055 69.287)">
<stop stop-color="#FFD840"/>
<stop offset="0.558578" stop-color="#F3ACFF"/>
<stop offset="1" stop-color="#8AECFF"/>
</radialGradient>
<radialGradient id="paint13_radial_2_737" cx="0" cy="0" r="1" gradientUnits="userSpaceOnUse" gradientTransform="translate(286.772 121.178) rotate(146.802) scale(42.4434 38.9008)">
<stop stop-color="#FFD840"/>
<stop offset="0.558578" stop-color="#F3ACFF"/>
<stop offset="1" stop-color="#8AECFF"/>
</radialGradient>
<radialGradient id="paint14_radial_2_737" cx="0" cy="0" r="1" gradientUnits="userSpaceOnUse" gradientTransform="translate(299.271 137.441) rotate(129.684) scale(36.2958 35.6803)">
<stop stop-color="#FFD840"/>
<stop offset="0.558578" stop-color="#F3ACFF"/>
<stop offset="1" stop-color="#8AECFF"/>
</radialGradient>
</defs>
</svg>
