<svg width="468" height="483" viewBox="0 0 468 483" fill="none" xmlns="http://www.w3.org/2000/svg">
<g filter="url(#filter0_ddd_2_123)">
<path d="M217.705 189.192L218.304 189.508L218.429 188.843C219.748 181.846 224.233 175.54 231.051 172.247C234.826 170.424 238.857 169.729 242.775 170.03C250.869 170.652 258.478 175.522 262.32 183.477C264.538 188.07 265.864 192.663 266.508 197.206L266.508 197.209C268.158 208.312 265.738 219.006 261.934 227.891C258.127 236.78 252.949 243.824 249.13 247.616L249.126 247.62C248.637 248.117 247.88 248.622 247.047 249.025C246.213 249.427 245.347 249.705 244.654 249.78L244.649 249.78C242.023 250.092 238.572 250.172 234.628 249.869C222.528 248.939 205.934 244.411 194.365 232.05L194.362 232.048C191.204 228.719 188.431 224.825 186.213 220.232C180.51 208.421 185.295 194.344 196.86 188.759C200.618 186.944 204.651 186.254 208.57 186.555C211.762 186.8 214.878 187.704 217.705 189.192Z" stroke="#28252E"/>
<path d="M184.951 219.886L171.856 218.883C166.365 207.168 171.112 193.311 182.505 187.728L194.878 188.675C184.174 194.834 179.829 208.301 184.951 219.886Z" stroke="#28252E" stroke-linejoin="round"/>
<path d="M192.769 231.796L179.996 230.818C177.074 227.712 174.485 224.116 172.366 219.925L185.439 220.926C187.475 225.08 189.96 228.672 192.769 231.796Z" stroke="#28252E" stroke-linejoin="round"/>
<path d="M184.471 186.875C187.687 185.656 191.052 185.213 194.336 185.465L194.336 185.465L201.722 186.031C199.966 186.412 198.23 186.998 196.546 187.8L184.471 186.875Z" stroke="#28252E" stroke-linejoin="round"/>
<path d="M215.147 188.035L203.845 187.169C202.994 186.725 202.118 186.332 201.222 185.992L208.57 186.555C210.825 186.728 213.043 187.23 215.147 188.035Z" stroke="#28252E" stroke-linejoin="round"/>
<path d="M193.768 232.875C202.054 241.659 212.807 246.517 222.696 248.955L220.394 248.779C208.606 247.873 192.552 243.552 181.035 231.9L193.768 232.875Z" stroke="#28252E" stroke-linejoin="round"/>
<path d="M217.534 188.218L204.306 187.205C205.742 180.469 210.124 174.437 216.697 171.215L229.071 172.163C222.956 175.688 218.898 181.642 217.534 188.218Z" stroke="#28252E" stroke-linejoin="round"/>
<path d="M218.66 170.363C221.888 169.136 225.255 168.688 228.541 168.94L228.541 168.94L235.941 169.507C234.178 169.891 232.433 170.481 230.738 171.288L218.66 170.363Z" stroke="#28252E" stroke-linejoin="round"/>
<mask id="path-9-inside-1_2_123" fill="white">
<path d="M230.473 249.187C227.818 249.501 224.347 249.582 220.391 249.28L234.589 250.368C238.56 250.673 242.044 250.592 244.707 250.277L230.473 249.187Z"/>
</mask>
<path d="M220.317 249.776C220.329 249.777 220.341 249.778 220.353 249.779L220.429 248.782C220.417 248.781 220.405 248.78 220.394 248.779L220.317 249.776ZM220.391 249.28L220.467 248.283C219.916 248.241 219.436 248.653 219.394 249.204C219.352 249.755 219.764 250.235 220.314 250.277L220.391 249.28ZM230.473 249.187L230.55 248.19C230.485 248.185 230.42 248.186 230.356 248.194L230.473 249.187ZM244.707 250.277L244.825 251.27C245.336 251.209 245.718 250.77 245.707 250.256C245.696 249.741 245.297 249.319 244.784 249.28L244.707 250.277ZM234.589 250.368L234.666 249.371L234.665 249.37L234.589 250.368ZM220.315 250.277C224.324 250.583 227.861 250.503 230.591 250.18L230.356 248.194C227.775 248.5 224.369 248.581 220.467 248.283L220.315 250.277ZM230.397 250.184L244.631 251.274L244.784 249.28L230.55 248.19L230.397 250.184ZM244.589 249.284C242.001 249.59 238.583 249.672 234.666 249.371L234.512 251.365C238.537 251.674 242.087 251.594 244.825 251.27L244.589 249.284ZM234.665 249.37L220.467 248.283L220.314 250.277L234.513 251.365L234.665 249.37Z" fill="#28252E" mask="url(#path-9-inside-1_2_123)"/>
<path d="M248.192 248.374C247.843 248.606 247.454 248.828 247.047 249.025C246.231 249.419 245.384 249.694 244.699 249.775L233.135 248.889C233.172 248.871 233.21 248.853 233.248 248.835C234.064 248.441 234.852 247.938 235.434 247.397L248.192 248.374Z" stroke="#28252E" stroke-linejoin="round"/>
<path d="M261.924 182.693L248.86 181.693C245.947 175.831 241.053 171.608 235.419 169.467L242.775 170.03C242.775 170.03 242.775 170.03 242.775 170.03C250.599 170.631 257.971 175.202 261.924 182.693Z" stroke="#28252E" stroke-linejoin="round"/>
<path d="M249.291 247.455L236.354 246.464C240.17 242.441 245.007 235.629 248.619 227.195C252.404 218.356 254.857 207.704 253.351 196.592L266.565 197.604C268.1 208.565 265.693 219.111 261.934 227.891C258.181 236.655 253.094 243.626 249.291 247.455Z" stroke="#28252E" stroke-linejoin="round"/>
<path d="M266.416 196.589L253.205 195.578C252.567 191.325 251.338 187.029 249.356 182.734L262.444 183.736C264.489 188.035 265.755 192.333 266.416 196.589Z" stroke="#28252E" stroke-linejoin="round"/>
<path d="M216.6 170.707C209.63 174.072 205.05 180.517 203.704 187.66C197.272 184.273 189.377 183.853 182.408 187.219C170.587 192.927 165.709 207.308 171.529 219.359C173.77 224 176.574 227.937 179.765 231.302C195.266 247.864 219.649 250.47 230.473 249.187C232.009 249.022 234.165 247.981 235.248 246.881C242.983 239.201 256.103 218.484 252.769 196.046C252.118 191.454 250.778 186.811 248.536 182.17C242.716 170.118 228.42 164.998 216.6 170.707Z" fill="url(#paint0_linear_2_123)"/>
</g>
<defs>
<filter id="filter0_ddd_2_123" x="-30.9274" y="0.372498" width="498.462" height="482.187" filterUnits="userSpaceOnUse" color-interpolation-filters="sRGB">
<feFlood flood-opacity="0" result="BackgroundImageFix"/>
<feColorMatrix in="SourceAlpha" type="matrix" values="0 0 0 0 0 0 0 0 0 0 0 0 0 0 0 0 0 0 127 0" result="hardAlpha"/>
<feOffset dy="32"/>
<feGaussianBlur stdDeviation="100"/>
<feColorMatrix type="matrix" values="0 0 0 0 0.541176 0 0 0 0 0.92549 0 0 0 0 1 0 0 0 1 0"/>
<feBlend mode="normal" in2="BackgroundImageFix" result="effect1_dropShadow_2_123"/>
<feColorMatrix in="SourceAlpha" type="matrix" values="0 0 0 0 0 0 0 0 0 0 0 0 0 0 0 0 0 0 127 0" result="hardAlpha"/>
<feOffset dy="16"/>
<feGaussianBlur stdDeviation="60"/>
<feColorMatrix type="matrix" values="0 0 0 0 0.992157 0 0 0 0 0.807843 0 0 0 0 0.427451 0 0 0 1 0"/>
<feBlend mode="normal" in2="effect1_dropShadow_2_123" result="effect2_dropShadow_2_123"/>
<feColorMatrix in="SourceAlpha" type="matrix" values="0 0 0 0 0 0 0 0 0 0 0 0 0 0 0 0 0 0 127 0" result="hardAlpha"/>
<feOffset dy="8"/>
<feGaussianBlur stdDeviation="6"/>
<feColorMatrix type="matrix" values="0 0 0 0 0.541176 0 0 0 0 0.92549 0 0 0 0 1 0 0 0 0.4 0"/>
<feBlend mode="normal" in2="effect2_dropShadow_2_123" result="effect3_dropShadow_2_123"/>
<feBlend mode="normal" in="SourceGraphic" in2="effect3_dropShadow_2_123" result="shape"/>
</filter>
<linearGradient id="paint0_linear_2_123" x1="183.684" y1="199.323" x2="232.408" y2="240.787" gradientUnits="userSpaceOnUse">
<stop stop-color="#17191C"/>
<stop offset="1" stop-color="#34373B"/>
</linearGradient>
</defs>
</svg>
