<svg width="677" height="656" viewBox="0 0 677 656" fill="none" xmlns="http://www.w3.org/2000/svg">
<path d="M659.113 399.975C602.618 432.309 537.539 446.47 472.713 440.543C407.89 434.611 346.462 408.877 296.766 366.83C247.073 324.784 211.526 268.466 194.949 205.524C178.37 142.576 181.569 76.0502 204.105 14.9768C205.36 10.732 204.105 6.14349 200.871 3.12789C197.631 0.11229 192.964 -0.809577 188.824 0.742423C120.824 35.4251 66.1983 91.6118 33.4503 160.569C0.710289 229.522 -8.31505 307.369 7.78362 381.982C23.8823 456.597 64.1996 523.796 122.461 573.116C180.721 622.433 253.654 651.1 329.901 654.662C406.152 658.22 481.434 636.465 544.034 592.788C606.633 549.105 653.034 485.954 676.013 413.161C677.32 408.698 675.857 403.885 672.279 400.911C668.503 397.901 663.258 397.531 659.096 399.979L659.113 399.975Z" fill="black"/>
</svg>
