<svg width="318" height="312" viewBox="0 0 318 312" fill="none" xmlns="http://www.w3.org/2000/svg">
<g filter="url(#filter0_ddd_2_718)">
<path d="M214.937 126.258L214.937 126.258L214.947 126.267C215.507 126.798 216.19 127.713 216.474 129.172C216.759 130.633 216.649 132.682 215.551 135.489C213.37 140.897 210.39 145.855 206.762 150.234C199.297 159.245 189.085 165.805 177.432 168.791C176.616 169.001 175.783 169.159 174.933 169.322L174.933 169.321L174.922 169.324C169.703 170.441 164.44 170.743 159.262 170.306L159.262 170.306C137.645 168.512 117.981 154.088 110.96 133.137C104.943 114.919 108.937 95.2012 120.878 80.788C123.556 77.5546 126.635 74.588 130.091 71.9651C132.502 70.1534 134.458 69.5091 135.958 69.4021C137.455 69.2952 138.543 69.7207 139.225 70.125C139.873 70.5087 140.736 71.2376 141.33 72.556C141.925 73.8754 142.269 75.8253 141.809 78.6801L141.809 78.6813C140.842 84.78 141.17 90.8835 142.711 96.8965L142.712 96.8989C145.525 107.659 152.303 116.552 161.115 122.445C171.093 129.163 183.664 131.959 196.086 129.339C199.452 128.645 202.706 127.529 205.821 126.114L205.821 126.114C208.542 124.873 210.565 124.663 212.022 124.875C213.476 125.087 214.406 125.726 214.937 126.258Z" fill="#E1FF00"/>
<path d="M214.937 126.258L214.937 126.258L214.947 126.267C215.507 126.798 216.19 127.713 216.474 129.172C216.759 130.633 216.649 132.682 215.551 135.489C213.37 140.897 210.39 145.855 206.762 150.234C199.297 159.245 189.085 165.805 177.432 168.791C176.616 169.001 175.783 169.159 174.933 169.322L174.933 169.321L174.922 169.324C169.703 170.441 164.44 170.743 159.262 170.306L159.262 170.306C137.645 168.512 117.981 154.088 110.96 133.137C104.943 114.919 108.937 95.2012 120.878 80.788C123.556 77.5546 126.635 74.588 130.091 71.9651C132.502 70.1534 134.458 69.5091 135.958 69.4021C137.455 69.2952 138.543 69.7207 139.225 70.125C139.873 70.5087 140.736 71.2376 141.33 72.556C141.925 73.8754 142.269 75.8253 141.809 78.6801L141.809 78.6813C140.842 84.78 141.17 90.8835 142.711 96.8965L142.712 96.8989C145.525 107.659 152.303 116.552 161.115 122.445C171.093 129.163 183.664 131.959 196.086 129.339C199.452 128.645 202.706 127.529 205.821 126.114L205.821 126.114C208.542 124.873 210.565 124.663 212.022 124.875C213.476 125.087 214.406 125.726 214.937 126.258Z" fill="url(#paint0_radial_2_718)"/>
<path d="M214.937 126.258L214.937 126.258L214.947 126.267C215.507 126.798 216.19 127.713 216.474 129.172C216.759 130.633 216.649 132.682 215.551 135.489C213.37 140.897 210.39 145.855 206.762 150.234C199.297 159.245 189.085 165.805 177.432 168.791C176.616 169.001 175.783 169.159 174.933 169.322L174.933 169.321L174.922 169.324C169.703 170.441 164.44 170.743 159.262 170.306L159.262 170.306C137.645 168.512 117.981 154.088 110.96 133.137C104.943 114.919 108.937 95.2012 120.878 80.788C123.556 77.5546 126.635 74.588 130.091 71.9651C132.502 70.1534 134.458 69.5091 135.958 69.4021C137.455 69.2952 138.543 69.7207 139.225 70.125C139.873 70.5087 140.736 71.2376 141.33 72.556C141.925 73.8754 142.269 75.8253 141.809 78.6801L141.809 78.6813C140.842 84.78 141.17 90.8835 142.711 96.8965L142.712 96.8989C145.525 107.659 152.303 116.552 161.115 122.445C171.093 129.163 183.664 131.959 196.086 129.339C199.452 128.645 202.706 127.529 205.821 126.114L205.821 126.114C208.542 124.873 210.565 124.663 212.022 124.875C213.476 125.087 214.406 125.726 214.937 126.258Z" stroke="#28252E"/>
<path d="M158.23 171.216L152.155 178.552C130.731 176.673 111.269 162.393 104.202 141.668L110.303 134.3C117.59 154.89 136.906 169.083 158.23 171.216Z" fill="#E1FF00"/>
<path d="M158.23 171.216L152.155 178.552C130.731 176.673 111.269 162.393 104.202 141.668L110.303 134.3C117.59 154.89 136.906 169.083 158.23 171.216Z" fill="url(#paint1_radial_2_718)"/>
<path d="M158.23 171.216L152.155 178.552C130.731 176.673 111.269 162.393 104.202 141.668L110.303 134.3C117.59 154.89 136.906 169.083 158.23 171.216Z" stroke="#28252E" stroke-linejoin="round"/>
<path d="M173.742 170.58L167.905 177.628C163.064 178.648 158.187 178.967 153.375 178.647L159.439 171.324C164.169 171.7 168.969 171.471 173.742 170.58Z" fill="#E1FF00"/>
<path d="M173.742 170.58L167.905 177.628C163.064 178.648 158.187 178.967 153.375 178.647L159.439 171.324C164.169 171.7 168.969 171.471 173.742 170.58Z" fill="url(#paint2_radial_2_718)"/>
<path d="M173.742 170.58L167.905 177.628C163.064 178.648 158.187 178.967 153.375 178.647L159.439 171.324C164.169 171.7 168.969 171.471 173.742 170.58Z" stroke="#28252E" stroke-linejoin="round"/>
<path d="M176.236 170.087L170.428 177.099C170.108 177.179 169.785 177.251 169.459 177.319L175.297 170.27C175.608 170.211 175.921 170.15 176.236 170.087Z" fill="#E1FF00"/>
<path d="M176.236 170.087L170.428 177.099C170.108 177.179 169.785 177.251 169.459 177.319L175.297 170.27C175.608 170.211 175.921 170.15 176.236 170.087Z" fill="url(#paint3_radial_2_718)"/>
<path d="M176.236 170.087L170.428 177.099C170.108 177.179 169.785 177.251 169.459 177.319L175.297 170.27C175.608 170.211 175.921 170.15 176.236 170.087Z" stroke="#28252E" stroke-linejoin="round"/>
<path d="M103.836 140.542C98.224 122.567 102.278 103.242 114.031 89.0566L114.031 89.0565L114.136 88.9297C106.827 102.222 105.053 118.192 109.925 133.189L103.836 140.542Z" fill="#E1FF00"/>
<path d="M103.836 140.542C98.224 122.567 102.278 103.242 114.031 89.0566L114.031 89.0565L114.136 88.9297C106.827 102.222 105.053 118.192 109.925 133.189L103.836 140.542Z" fill="url(#paint4_radial_2_718)"/>
<path d="M103.836 140.542C98.224 122.567 102.278 103.242 114.031 89.0566L114.031 89.0565L114.136 88.9297C106.827 102.222 105.053 118.192 109.925 133.189L103.836 140.542Z" stroke="#28252E" stroke-linejoin="round"/>
<path d="M177.838 169.719C186.087 167.581 193.623 163.68 199.997 158.403L199.915 158.502C192.775 167.121 183.122 173.498 172.099 176.649L177.838 169.719Z" fill="#E1FF00"/>
<path d="M177.838 169.719C186.087 167.581 193.623 163.68 199.997 158.403L199.915 158.502C192.775 167.121 183.122 173.498 172.099 176.649L177.838 169.719Z" fill="url(#paint5_radial_2_718)"/>
<path d="M177.838 169.719C186.087 167.581 193.623 163.68 199.997 158.403L199.915 158.502C192.775 167.121 183.122 173.498 172.099 176.649L177.838 169.719Z" stroke="#28252E" stroke-linejoin="round"/>
<path d="M160.657 122.135L154.45 129.63C146.076 123.909 139.643 115.405 136.898 105.162L142.967 97.8325C145.868 107.988 152.322 116.417 160.657 122.135Z" fill="#E1FF00"/>
<path d="M160.657 122.135L154.45 129.63C146.076 123.909 139.643 115.405 136.898 105.162L142.967 97.8325C145.868 107.988 152.322 116.417 160.657 122.135Z" fill="url(#paint6_radial_2_718)"/>
<path d="M160.657 122.135L154.45 129.63C146.076 123.909 139.643 115.405 136.898 105.162L142.967 97.8325C145.868 107.988 152.322 116.417 160.657 122.135Z" stroke="#28252E" stroke-linejoin="round"/>
<path d="M194.707 129.607L188.863 136.664C176.963 139.126 164.929 136.512 155.285 130.189L161.491 122.696C171.037 128.987 182.893 131.719 194.707 129.607Z" fill="#E1FF00"/>
<path d="M194.707 129.607L188.863 136.664C176.963 139.126 164.929 136.512 155.285 130.189L161.491 122.696C171.037 128.987 182.893 131.719 194.707 129.607Z" fill="url(#paint7_radial_2_718)"/>
<path d="M194.707 129.607L188.863 136.664C176.963 139.126 164.929 136.512 155.285 130.189L161.491 122.696C171.037 128.987 182.893 131.719 194.707 129.607Z" stroke="#28252E" stroke-linejoin="round"/>
<path d="M120.768 80.9194L120.877 80.7879C120.877 80.7879 120.877 80.7878 120.877 80.7878C122.418 78.9277 124.092 77.1559 125.893 75.4871L122.594 79.4713C121.973 79.9432 121.365 80.426 120.768 80.9194Z" fill="#E1FF00"/>
<path d="M120.768 80.9194L120.877 80.7879C120.877 80.7879 120.877 80.7878 120.877 80.7878C122.418 78.9277 124.092 77.1559 125.893 75.4871L122.594 79.4713C121.973 79.9432 121.365 80.426 120.768 80.9194Z" fill="url(#paint8_radial_2_718)"/>
<path d="M120.768 80.9194L120.877 80.7879C120.877 80.7879 120.877 80.7878 120.877 80.7878C122.418 78.9277 124.092 77.1559 125.893 75.4871L122.594 79.4713C121.973 79.9432 121.365 80.426 120.768 80.9194Z" stroke="#28252E" stroke-linejoin="round"/>
<path d="M141.566 80.4323C140.925 85.8638 141.305 91.2918 142.648 96.6491L136.597 103.956C135.303 98.427 135.06 92.8315 135.928 87.2413L141.566 80.4323Z" fill="#E1FF00"/>
<path d="M141.566 80.4323C140.925 85.8638 141.305 91.2918 142.648 96.6491L136.597 103.956C135.303 98.427 135.06 92.8315 135.928 87.2413L141.566 80.4323Z" fill="url(#paint9_radial_2_718)"/>
<path d="M141.566 80.4323C140.925 85.8638 141.305 91.2918 142.648 96.6491L136.597 103.956C135.303 98.427 135.06 92.8315 135.928 87.2413L141.566 80.4323Z" stroke="#28252E" stroke-linejoin="round"/>
<path d="M214.108 138.76C212.119 142.907 209.645 146.753 206.762 150.234L206.762 150.234L206.692 150.318C207.776 148.351 208.749 146.31 209.603 144.201L214.108 138.76Z" fill="#E1FF00"/>
<path d="M214.108 138.76C212.119 142.907 209.645 146.753 206.762 150.234L206.762 150.234L206.692 150.318C207.776 148.351 208.749 146.31 209.603 144.201L214.108 138.76Z" fill="url(#paint10_radial_2_718)"/>
<path d="M214.108 138.76C212.119 142.907 209.645 146.753 206.762 150.234L206.762 150.234L206.692 150.318C207.776 148.351 208.749 146.31 209.603 144.201L214.108 138.76Z" stroke="#28252E" stroke-linejoin="round"/>
<path d="M198.455 133.519C195.873 134.686 193.202 135.638 190.456 136.308L196.257 129.303C198.879 128.751 201.432 127.944 203.905 126.939L198.455 133.519Z" fill="#E1FF00"/>
<path d="M198.455 133.519C195.873 134.686 193.202 135.638 190.456 136.308L196.257 129.303C198.879 128.751 201.432 127.944 203.905 126.939L198.455 133.519Z" fill="url(#paint11_radial_2_718)"/>
<path d="M198.455 133.519C195.873 134.686 193.202 135.638 190.456 136.308L196.257 129.303C198.879 128.751 201.432 127.944 203.905 126.939L198.455 133.519Z" stroke="#28252E" stroke-linejoin="round"/>
<path d="M138.7 69.8535L132.511 77.3273C131.69 76.9168 130.53 76.5667 129.04 76.6731C127.952 76.7507 126.706 77.07 125.305 77.7664L130.137 71.9306C132.527 70.1451 134.467 69.5084 135.958 69.402C137.117 69.3193 138.03 69.5553 138.7 69.8535Z" fill="#E1FF00"/>
<path d="M138.7 69.8535L132.511 77.3273C131.69 76.9168 130.53 76.5667 129.04 76.6731C127.952 76.7507 126.706 77.07 125.305 77.7664L130.137 71.9306C132.527 70.1451 134.467 69.5084 135.958 69.402C137.117 69.3193 138.03 69.5553 138.7 69.8535Z" fill="url(#paint12_radial_2_718)"/>
<path d="M138.7 69.8535L132.511 77.3273C131.69 76.9168 130.53 76.5667 129.04 76.6731C127.952 76.7507 126.706 77.07 125.305 77.7664L130.137 71.9306C132.527 70.1451 134.467 69.5084 135.958 69.402C137.117 69.3193 138.03 69.5553 138.7 69.8535Z" stroke="#28252E" stroke-linejoin="round"/>
<path d="M141.83 78.5463L136.143 85.4137C136.281 83.2704 135.949 81.6427 135.394 80.4134C134.836 79.1759 134.065 78.3681 133.372 77.8548L139.58 70.3578C140.164 70.7801 140.839 71.4669 141.33 72.5559C141.915 73.8547 142.258 75.7642 141.83 78.5463Z" fill="#E1FF00"/>
<path d="M141.83 78.5463L136.143 85.4137C136.281 83.2704 135.949 81.6427 135.394 80.4134C134.836 79.1759 134.065 78.3681 133.372 77.8548L139.58 70.3578C140.164 70.7801 140.839 71.4669 141.33 72.5559C141.915 73.8547 142.258 75.7642 141.83 78.5463Z" fill="url(#paint13_radial_2_718)"/>
<path d="M141.83 78.5463L136.143 85.4137C136.281 83.2704 135.949 81.6427 135.394 80.4134C134.836 79.1759 134.065 78.3681 133.372 77.8548L139.58 70.3578C140.164 70.7801 140.839 71.4669 141.33 72.5559C141.915 73.8547 142.258 75.7642 141.83 78.5463Z" stroke="#28252E" stroke-linejoin="round"/>
<path d="M215.315 126.658C215.779 127.211 216.25 128.022 216.474 129.171C216.756 130.621 216.651 132.646 215.579 135.416L210.417 141.65C210.833 139.88 210.838 138.429 210.608 137.249C210.33 135.819 209.713 134.816 209.114 134.146L215.315 126.658Z" fill="#E1FF00"/>
<path d="M215.315 126.658C215.779 127.211 216.25 128.022 216.474 129.171C216.756 130.621 216.651 132.646 215.579 135.416L210.417 141.65C210.833 139.88 210.838 138.429 210.608 137.249C210.33 135.819 209.713 134.816 209.114 134.146L215.315 126.658Z" fill="url(#paint14_radial_2_718)"/>
<path d="M215.315 126.658C215.779 127.211 216.25 128.022 216.474 129.171C216.756 130.621 216.651 132.646 215.579 135.416L210.417 141.65C210.833 139.88 210.838 138.429 210.608 137.249C210.33 135.819 209.713 134.816 209.114 134.146L215.315 126.658Z" stroke="#28252E" stroke-linejoin="round"/>
<path d="M214.6 125.955L208.391 133.453C207.708 132.899 206.705 132.357 205.319 132.154C204.011 131.964 202.386 132.079 200.396 132.744L205.925 126.067C208.594 124.868 210.584 124.666 212.022 124.875C213.206 125.048 214.043 125.504 214.6 125.955Z" fill="#E1FF00"/>
<path d="M214.6 125.955L208.391 133.453C207.708 132.899 206.705 132.357 205.319 132.154C204.011 131.964 202.386 132.079 200.396 132.744L205.925 126.067C208.594 124.868 210.584 124.666 212.022 124.875C213.206 125.048 214.043 125.504 214.6 125.955Z" fill="url(#paint15_radial_2_718)"/>
<path d="M214.6 125.955L208.391 133.453C207.708 132.899 206.705 132.357 205.319 132.154C204.011 131.964 202.386 132.079 200.396 132.744L205.925 126.067C208.594 124.868 210.584 124.666 212.022 124.875C213.206 125.048 214.043 125.504 214.6 125.955Z" stroke="#28252E" stroke-linejoin="round"/>
<path d="M208.444 134.173C207.248 132.977 204.34 131.387 198.767 133.927C195.681 135.33 192.462 136.432 189.137 137.118C176.852 139.709 164.418 136.945 154.546 130.298C145.828 124.468 139.128 115.674 136.348 105.041C134.824 99.0915 134.5 93.0569 135.456 87.0281C136.4 81.1691 134.074 78.8174 132.633 77.9633C131.126 77.0703 127.882 76.1219 122.943 79.8346C103.914 94.2763 96.2035 119.054 103.639 141.563C110.726 162.716 130.57 177.263 152.373 179.073C157.599 179.513 162.911 179.209 168.179 178.081C169.027 177.92 169.875 177.758 170.709 177.544C188.179 173.068 202.441 160.626 209.169 143.942C211.419 138.193 209.691 135.354 208.444 134.173Z" fill="#292D32"/>
</g>
<defs>
<filter id="filter0_ddd_2_718" x="0.841797" y="0.885292" width="316.266" height="310.381" filterUnits="userSpaceOnUse" color-interpolation-filters="sRGB">
<feFlood flood-opacity="0" result="BackgroundImageFix"/>
<feColorMatrix in="SourceAlpha" type="matrix" values="0 0 0 0 0 0 0 0 0 0 0 0 0 0 0 0 0 0 127 0" result="hardAlpha"/>
<feOffset dy="32"/>
<feGaussianBlur stdDeviation="50"/>
<feColorMatrix type="matrix" values="0 0 0 0 1 0 0 0 0 0.845196 0 0 0 0 0.249211 0 0 0 0.4 0"/>
<feBlend mode="normal" in2="BackgroundImageFix" result="effect1_dropShadow_2_718"/>
<feColorMatrix in="SourceAlpha" type="matrix" values="0 0 0 0 0 0 0 0 0 0 0 0 0 0 0 0 0 0 127 0" result="hardAlpha"/>
<feOffset dy="16"/>
<feGaussianBlur stdDeviation="36"/>
<feColorMatrix type="matrix" values="0 0 0 0 0.941176 0 0 0 0 0.682353 0 0 0 0 1 0 0 0 1 0"/>
<feBlend mode="normal" in2="effect1_dropShadow_2_718" result="effect2_dropShadow_2_718"/>
<feColorMatrix in="SourceAlpha" type="matrix" values="0 0 0 0 0 0 0 0 0 0 0 0 0 0 0 0 0 0 127 0" result="hardAlpha"/>
<feOffset dy="8"/>
<feGaussianBlur stdDeviation="6"/>
<feColorMatrix type="matrix" values="0 0 0 0 0.541176 0 0 0 0 0.92549 0 0 0 0 1 0 0 0 0.4 0"/>
<feBlend mode="normal" in2="effect2_dropShadow_2_718" result="effect3_dropShadow_2_718"/>
<feBlend mode="normal" in="SourceGraphic" in2="effect3_dropShadow_2_718" result="shape"/>
</filter>
<radialGradient id="paint0_radial_2_718" cx="0" cy="0" r="1" gradientUnits="userSpaceOnUse" gradientTransform="translate(196.627 69.1802) rotate(119.128) scale(130.171 130.02)">
<stop stop-color="#FFD840"/>
<stop offset="0.558578" stop-color="#F3ACFF"/>
<stop offset="1" stop-color="#8AECFF"/>
</radialGradient>
<radialGradient id="paint1_radial_2_718" cx="0" cy="0" r="1" gradientUnits="userSpaceOnUse" gradientTransform="translate(147.053 132.038) rotate(115.439) scale(62.4844 61.4757)">
<stop stop-color="#FFD840"/>
<stop offset="0.558578" stop-color="#F3ACFF"/>
<stop offset="1" stop-color="#8AECFF"/>
</radialGradient>
<radialGradient id="paint2_radial_2_718" cx="0" cy="0" r="1" gradientUnits="userSpaceOnUse" gradientTransform="translate(173.531 168.512) rotate(144.296) scale(22.3514 15.1505)">
<stop stop-color="#FFD840"/>
<stop offset="0.558578" stop-color="#F3ACFF"/>
<stop offset="1" stop-color="#8AECFF"/>
</radialGradient>
<radialGradient id="paint3_radial_2_718" cx="0" cy="0" r="1" gradientUnits="userSpaceOnUse" gradientTransform="translate(177.251 170.194) rotate(135.453) scale(11.1951 9.73133)">
<stop stop-color="#FFD840"/>
<stop offset="0.558578" stop-color="#F3ACFF"/>
<stop offset="1" stop-color="#8AECFF"/>
</radialGradient>
<radialGradient id="paint4_radial_2_718" cx="0" cy="0" r="1" gradientUnits="userSpaceOnUse" gradientTransform="translate(121.03 88.4828) rotate(105.014) scale(55.3431 47.335)">
<stop stop-color="#FFD840"/>
<stop offset="0.558578" stop-color="#F3ACFF"/>
<stop offset="1" stop-color="#8AECFF"/>
</radialGradient>
<radialGradient id="paint5_radial_2_718" cx="0" cy="0" r="1" gradientUnits="userSpaceOnUse" gradientTransform="translate(205.867 153.415) rotate(143.053) scale(39.0606 27.6974)">
<stop stop-color="#FFD840"/>
<stop offset="0.558578" stop-color="#F3ACFF"/>
<stop offset="1" stop-color="#8AECFF"/>
</radialGradient>
<radialGradient id="paint6_radial_2_718" cx="0" cy="0" r="1" gradientUnits="userSpaceOnUse" gradientTransform="translate(154.555 99.0929) rotate(104.713) scale(35.4111 30.0929)">
<stop stop-color="#FFD840"/>
<stop offset="0.558578" stop-color="#F3ACFF"/>
<stop offset="1" stop-color="#8AECFF"/>
</radialGradient>
<radialGradient id="paint7_radial_2_718" cx="0" cy="0" r="1" gradientUnits="userSpaceOnUse" gradientTransform="translate(191.156 117.59) rotate(137.168) scale(39.5633 33.1569)">
<stop stop-color="#FFD840"/>
<stop offset="0.558578" stop-color="#F3ACFF"/>
<stop offset="1" stop-color="#8AECFF"/>
</radialGradient>
<radialGradient id="paint8_radial_2_718" cx="0" cy="0" r="1" gradientUnits="userSpaceOnUse" gradientTransform="translate(129.344 73.5516) rotate(132.695) scale(20.3637 18.5877)">
<stop stop-color="#FFD840"/>
<stop offset="0.558578" stop-color="#F3ACFF"/>
<stop offset="1" stop-color="#8AECFF"/>
</radialGradient>
<radialGradient id="paint9_radial_2_718" cx="0" cy="0" r="1" gradientUnits="userSpaceOnUse" gradientTransform="translate(142.604 82.2365) rotate(102.287) scale(23.5273 18.8725)">
<stop stop-color="#FFD840"/>
<stop offset="0.558578" stop-color="#F3ACFF"/>
<stop offset="1" stop-color="#8AECFF"/>
</radialGradient>
<radialGradient id="paint10_radial_2_718" cx="0" cy="0" r="1" gradientUnits="userSpaceOnUse" gradientTransform="translate(215.732 138.491) rotate(123.584) scale(24.2502 24.1264)">
<stop stop-color="#FFD840"/>
<stop offset="0.558578" stop-color="#F3ACFF"/>
<stop offset="1" stop-color="#8AECFF"/>
</radialGradient>
<radialGradient id="paint11_radial_2_718" cx="0" cy="0" r="1" gradientUnits="userSpaceOnUse" gradientTransform="translate(205.019 126.857) rotate(144.666) scale(17.2953 11.558)">
<stop stop-color="#FFD840"/>
<stop offset="0.558578" stop-color="#F3ACFF"/>
<stop offset="1" stop-color="#8AECFF"/>
</radialGradient>
<radialGradient id="paint12_radial_2_718" cx="0" cy="0" r="1" gradientUnits="userSpaceOnUse" gradientTransform="translate(138.494 69.3139) rotate(141.625) scale(17.4264 12.9539)">
<stop stop-color="#FFD840"/>
<stop offset="0.558578" stop-color="#F3ACFF"/>
<stop offset="1" stop-color="#8AECFF"/>
</radialGradient>
<radialGradient id="paint13_radial_2_718" cx="0" cy="0" r="1" gradientUnits="userSpaceOnUse" gradientTransform="translate(141.208 71.5925) rotate(108.376) scale(16.4629 14.9835)">
<stop stop-color="#FFD840"/>
<stop offset="0.558578" stop-color="#F3ACFF"/>
<stop offset="1" stop-color="#8AECFF"/>
</radialGradient>
<radialGradient id="paint14_radial_2_718" cx="0" cy="0" r="1" gradientUnits="userSpaceOnUse" gradientTransform="translate(216.173 128.042) rotate(110.271) scale(17.0024 15.9069)">
<stop stop-color="#FFD840"/>
<stop offset="0.558578" stop-color="#F3ACFF"/>
<stop offset="1" stop-color="#8AECFF"/>
</radialGradient>
<radialGradient id="paint15_radial_2_718" cx="0" cy="0" r="1" gradientUnits="userSpaceOnUse" gradientTransform="translate(214.085 124.566) rotate(137.989) scale(17.4481 14.3438)">
<stop stop-color="#FFD840"/>
<stop offset="0.558578" stop-color="#F3ACFF"/>
<stop offset="1" stop-color="#8AECFF"/>
</radialGradient>
</defs>
</svg>
